<svg xmlns="http://www.w3.org/2000/svg" width="560" height="388" role="img" aria-labelledby="languages-title languages-desc">
<title id="languages-title">Language distribution</title>
<desc id="languages-desc">Language distribution. Jupyter Notebook: 38.4%, TeX: 28.7%, C++: 13.1%, Python: 7.3%, JavaScript: 3.7%, HTML: 1.6%, C: 1.6%, MATLAB: 1.2%, TypeScript: 1.1%, CSS: 1.0%, Other: 2.3%</desc>
<style>:root{--bg-fill:#f0f0f0;--title-fill:#000000;--subtitle-fill:#333333;--center-fill:white;--center-text-main:#444444;--center-text-sub:#777777;--legend-text-fill:#000000;--slice-focus-stroke:#000000;--pct-label-inside-fill:#ffffff;--slice-edge:white;--overlay-color:rgba(0,0,0,0.22);}@media (prefers-color-scheme: dark){:root{--bg-fill:#0b0b0b;--title-fill:#ffffff;--subtitle-fill:#dddddd;--center-fill:#0b0b0b;--center-text-main:#ffffff;--center-text-sub:#cccccc;--legend-text-fill:#ffffff;--slice-focus-stroke:#ffffff;--pct-label-inside-fill:#ffffff;--slice-edge:#0b0b0b;--overlay-color:rgba(255,255,255,0.18);}}text{font-family:sans-serif;} .slice:focus{stroke:var(--slice-focus-stroke);stroke-width:3;outline:none} .slice{cursor:pointer} </style>
<defs>
<pattern id="p0" patternUnits="userSpaceOnUse" width="8" height="8"><rect width="8" height="8" fill="#DA5B0B"/></pattern>
<pattern id="p1" patternUnits="userSpaceOnUse" width="8" height="8"><rect width="8" height="8" fill="#3D6117"/><line x1="0" y1="8" x2="8" y2="0" stroke="var(--overlay-color)" stroke-width="1.5"/></pattern>
<pattern id="p2" patternUnits="userSpaceOnUse" width="8" height="8"><rect width="8" height="8" fill="#00599C"/><line x1="0" y1="4" x2="8" y2="4" stroke="var(--overlay-color)" stroke-width="1.5"/></pattern>
<pattern id="p3" patternUnits="userSpaceOnUse" width="8" height="8"><rect width="8" height="8" fill="#3776AB"/><line x1="4" y1="0" x2="4" y2="8" stroke="var(--overlay-color)" stroke-width="1.5"/></pattern>
<pattern id="p4" patternUnits="userSpaceOnUse" width="8" height="8"><rect width="8" height="8" fill="#F7DF1E"/><line x1="0" y1="8" x2="8" y2="0" stroke="var(--overlay-color)" stroke-width="1.5"/><line x1="0" y1="0" x2="8" y2="8" stroke="var(--overlay-color)" stroke-width="1.5"/></pattern>
<pattern id="p5" patternUnits="userSpaceOnUse" width="8" height="8"><rect width="8" height="8" fill="#E44D26"/><circle cx="4" cy="4" r="1.5" fill="var(--overlay-color)"/></pattern>
<pattern id="p6" patternUnits="userSpaceOnUse" width="8" height="8"><rect width="8" height="8" fill="#555555"/><line x1="0" y1="0" x2="8" y2="8" stroke="var(--overlay-color)" stroke-width="1.5"/></pattern>
<pattern id="p7" patternUnits="userSpaceOnUse" width="8" height="8"><rect width="8" height="8" fill="#999999"/><line x1="0" y1="2" x2="8" y2="2" stroke="var(--overlay-color)" stroke-width="1.5"/><line x1="0" y1="6" x2="8" y2="6" stroke="var(--overlay-color)" stroke-width="1.5"/></pattern>
<pattern id="p8" patternUnits="userSpaceOnUse" width="8" height="8"><rect width="8" height="8" fill="#3178C6"/><line x1="2" y1="0" x2="2" y2="8" stroke="var(--overlay-color)" stroke-width="1.5"/><line x1="6" y1="0" x2="6" y2="8" stroke="var(--overlay-color)" stroke-width="1.5"/></pattern>
<pattern id="p9" patternUnits="userSpaceOnUse" width="8" height="8"><rect width="8" height="8" fill="#1572B6"/><rect x="2" y="2" width="4" height="4" fill="none" stroke="var(--overlay-color)" stroke-width="1"/></pattern>
<pattern id="p10" patternUnits="userSpaceOnUse" width="8" height="8"><rect width="8" height="8" fill="#9CA3AF"/></pattern>
</defs>
<circle cx="175" cy="185" r="155" fill="var(--bg-fill)"/>
<text x="175" y="16" font-size="15" font-weight="bold" text-anchor="middle" fill="var(--title-fill)">Language distribution</text>
<path class="slice" d="M 175.000 30.000 A 155 155 0 0 1 278.390 300.479 L 225.028 240.877 A 75 75 0 0 0 175.000 110.000 Z" fill="url(#p0)" stroke="var(--slice-edge)" stroke-width="1.5" role="img" aria-label="Jupyter Notebook: 38.4%" tabindex="0"><title>Jupyter Notebook: 38.4%</title></path>
<text x="282.4" y="143.9" font-size="11" fill="var(--pct-label-inside-fill)" text-anchor="middle" dominant-baseline="middle" aria-hidden="true">38.4%</text>
<path class="slice" d="M 278.390 300.479 A 155 155 0 0 1 38.830 259.046 L 109.111 220.829 A 75 75 0 0 0 225.028 240.877 Z" fill="url(#p1)" stroke="var(--slice-edge)" stroke-width="1.5" role="img" aria-label="TeX: 28.7%" tabindex="0"><title>TeX: 28.7%</title></path>
<text x="155.4" y="298.3" font-size="11" fill="var(--pct-label-inside-fill)" text-anchor="middle" dominant-baseline="middle" aria-hidden="true">28.7%</text>
<path class="slice" d="M 38.830 259.046 A 155 155 0 0 1 28.068 135.645 L 103.904 161.118 A 75 75 0 0 0 109.111 220.829 Z" fill="url(#p2)" stroke="var(--slice-edge)" stroke-width="1.5" role="img" aria-label="C++: 13.1%" tabindex="0"><title>C++: 13.1%</title></path>
<text x="60.4" y="195.0" font-size="11" fill="var(--pct-label-inside-fill)" text-anchor="middle" dominant-baseline="middle" aria-hidden="true">13.1%</text>
<path class="slice" d="M 28.068 135.645 A 155 155 0 0 1 65.033 75.765 L 121.790 132.144 A 75 75 0 0 0 103.904 161.118 Z" fill="url(#p3)" stroke="var(--slice-edge)" stroke-width="1.5" role="img" aria-label="Python: 7.3%" tabindex="0"><title>Python: 7.3%</title></path>
<text x="77.1" y="124.6" font-size="11" fill="var(--pct-label-inside-fill)" text-anchor="middle" dominant-baseline="middle" aria-hidden="true">7.3%</text>
<path class="slice" d="M 65.033 75.765 A 155 155 0 0 1 93.538 53.133 L 135.583 121.193 A 75 75 0 0 0 121.790 132.144 Z" fill="url(#p4)" stroke="var(--slice-edge)" stroke-width="1.5" role="img" aria-label="JavaScript: 3.7%" tabindex="0"><title>JavaScript: 3.7%</title></path>
<path class="slice" d="M 93.538 53.133 A 155 155 0 0 1 107.291 45.571 L 142.238 117.534 A 75 75 0 0 0 135.583 121.193 Z" fill="url(#p5)" stroke="var(--slice-edge)" stroke-width="1.5" role="img" aria-label="HTML: 1.6%" tabindex="0"><title>HTML: 1.6%</title></path>
<path class="slice" d="M 107.291 45.571 A 155 155 0 0 1 121.331 39.588 L 149.031 114.639 A 75 75 0 0 0 142.238 117.534 Z" fill="url(#p6)" stroke="var(--slice-edge)" stroke-width="1.5" role="img" aria-label="C: 1.6%" tabindex="0"><title>C: 1.6%</title></path>
<path class="slice" d="M 121.331 39.588 A 155 155 0 0 1 132.324 35.991 L 154.350 112.899 A 75 75 0 0 0 149.031 114.639 Z" fill="url(#p7)" stroke="var(--slice-edge)" stroke-width="1.5" role="img" aria-label="MATLAB: 1.2%" tabindex="0"><title>MATLAB: 1.2%</title></path>
<path class="slice" d="M 132.324 35.991 A 155 155 0 0 1 143.086 33.321 L 159.558 111.607 A 75 75 0 0 0 154.350 112.899 Z" fill="url(#p8)" stroke="var(--slice-edge)" stroke-width="1.5" role="img" aria-label="TypeScript: 1.1%" tabindex="0"><title>TypeScript: 1.1%</title></path>
<path class="slice" d="M 143.086 33.321 A 155 155 0 0 1 152.328 31.667 L 164.029 110.807 A 75 75 0 0 0 159.558 111.607 Z" fill="url(#p9)" stroke="var(--slice-edge)" stroke-width="1.5" role="img" aria-label="CSS: 1.0%" tabindex="0"><title>CSS: 1.0%</title></path>
<path class="slice" d="M 152.328 31.667 A 155 155 0 0 1 175.000 30.000 L 175.000 110.000 A 75 75 0 0 0 164.029 110.807 Z" fill="url(#p10)" stroke="var(--slice-edge)" stroke-width="1.5" role="img" aria-label="Other: 2.3%" tabindex="0"><title>Other: 2.3%</title></path>
<circle cx="175" cy="185" r="75" fill="var(--center-fill)"/><text x="175" y="177" font-size="13" font-weight="bold" text-anchor="middle" fill="var(--center-text-main)">Languages</text><text x="175" y="197" font-size="11" text-anchor="middle" fill="var(--center-text-sub)">11 shown</text>
<rect x="355" y="30" width="14" height="14" fill="url(#p0)" rx="2" stroke="#DA5B0B" stroke-width="1" aria-hidden="true"/>
<text x="377" y="41" font-size="13" aria-hidden="true" fill="var(--legend-text-fill)">Jupyter Notebook 38.4%</text>
<rect x="355" y="58" width="14" height="14" fill="url(#p1)" rx="2" stroke="#3D6117" stroke-width="1" aria-hidden="true"/>
<text x="377" y="69" font-size="13" aria-hidden="true" fill="var(--legend-text-fill)">TeX 28.7%</text>
<rect x="355" y="86" width="14" height="14" fill="url(#p2)" rx="2" stroke="#00599C" stroke-width="1" aria-hidden="true"/>
<text x="377" y="97" font-size="13" aria-hidden="true" fill="var(--legend-text-fill)">C++ 13.1%</text>
<rect x="355" y="114" width="14" height="14" fill="url(#p3)" rx="2" stroke="#3776AB" stroke-width="1" aria-hidden="true"/>
<text x="377" y="125" font-size="13" aria-hidden="true" fill="var(--legend-text-fill)">Python 7.3%</text>
<rect x="355" y="142" width="14" height="14" fill="url(#p4)" rx="2" stroke="#F7DF1E" stroke-width="1" aria-hidden="true"/>
<text x="377" y="153" font-size="13" aria-hidden="true" fill="var(--legend-text-fill)">JavaScript 3.7%</text>
<rect x="355" y="170" width="14" height="14" fill="url(#p5)" rx="2" stroke="#E44D26" stroke-width="1" aria-hidden="true"/>
<text x="377" y="181" font-size="13" aria-hidden="true" fill="var(--legend-text-fill)">HTML 1.6%</text>
<rect x="355" y="198" width="14" height="14" fill="url(#p6)" rx="2" stroke="#555555" stroke-width="1" aria-hidden="true"/>
<text x="377" y="209" font-size="13" aria-hidden="true" fill="var(--legend-text-fill)">C 1.6%</text>
<rect x="355" y="226" width="14" height="14" fill="url(#p7)" rx="2" stroke="#999999" stroke-width="1" aria-hidden="true"/>
<text x="377" y="237" font-size="13" aria-hidden="true" fill="var(--legend-text-fill)">MATLAB 1.2%</text>
<rect x="355" y="254" width="14" height="14" fill="url(#p8)" rx="2" stroke="#3178C6" stroke-width="1" aria-hidden="true"/>
<text x="377" y="265" font-size="13" aria-hidden="true" fill="var(--legend-text-fill)">TypeScript 1.1%</text>
<rect x="355" y="282" width="14" height="14" fill="url(#p9)" rx="2" stroke="#1572B6" stroke-width="1" aria-hidden="true"/>
<text x="377" y="293" font-size="13" aria-hidden="true" fill="var(--legend-text-fill)">CSS 1.0%</text>
<rect x="355" y="310" width="14" height="14" fill="url(#p10)" rx="2" stroke="#9CA3AF" stroke-width="1" aria-hidden="true"/>
<text x="377" y="321" font-size="13" aria-hidden="true" fill="var(--legend-text-fill)">Other 2.3%</text>
</svg>